PathFileType	4	(X/Y/Z)	Patient4_TMGait_0pt7_02_left_18.trc.trc
DataRate	CameraRate	NumFrames	NumMarkers	Units	OrigDataRate	OrigDataStartFrame	OrigNumFrames
86.956521739130	86.956521739130	4	33	mm	86.956521739130	18	       141
Frame#	Time	Sacral			L.Shoulder			Chest			R.Shoulder			Neck			R.ASIS			L.ASIS			R.Thigh.Superior			R.Thigh.Lateral			R.Thigh.Inferior			R.Patella			L.Thigh.Superior			L.Thigh.Lateral			L.Thigh.Inferior			L.Patella			L.Shank.Superior			L.Shank.Lateral			L.Shank.Inferior			R.Shank.Superior			R.Shank.Lateral			R.Shank.Inferior			R.Heel			R.Midfoot.Superior			R.Midfoot.Lateral			R.Toe			L.Heel			L.Midfoot.Lateral			L.Midfoot.Superior			L.Toe			L.Elbow			L.Wrist			R.Elbow			R.Wrist			
		X1	Y1	Z1	X2	Y2	Z2	X3	Y3	Z3	X4	Y4	Z4	X5	Y5	Z5	X6	Y6	Z6	X7	Y7	Z7	X8	Y8	Z8	X9	Y9	Z9	X10	Y10	Z10	X11	Y11	Z11	X12	Y12	Z12	X13	Y13	Z13	X14	Y14	Z14	X15	Y15	Z15	X16	Y16	Z16	X17	Y17	Z17	X18	Y18	Z18	X19	Y19	Z19	X20	Y20	Z20	X21	Y21	Z21	X22	Y22	Z22	X23	Y23	Z23	X24	Y24	Z24	X25	Y25	Z25	X26	Y26	Z26	X27	Y27	Z27	X28	Y28	Z28	X29	Y29	Z29	X30	Y30	Z30	X31	Y31	Z31	X32	Y32	Z32	X33	Y33	Z33	

18	20.545500000000	810.777486913295	1020.835080729413	513.147444787384	1008.173232274612	1418.650490999550	299.113584101391	1128.648269127059	1338.171715217274	442.313129979544	1091.185376609220	1431.082795217280	620.952567346460	1046.037669489120	1482.641067907372	447.898614887903	1037.763261688303	934.491157737925	607.696338907844	1002.008900365455	956.461598249993	334.162677698079	1033.902984371423	723.944462661422	582.664859780047	933.404440177576	633.344369516696	649.064209407036	991.871634218876	566.750212905923	567.097895637845	974.960937334027	484.047192908416	573.547900403316	1091.269366457834	803.859955508644	379.391514890042	1074.882775668378	674.413725945327	290.792118050905	1179.163957657799	627.072110266818	359.936381062206	1214.162642136939	556.811892223613	354.001730488049	1194.366981287713	478.580444908026	338.990424008862	1126.324054016323	356.228851026543	272.810892009653	1200.343658888187	248.715996078303	330.322540437751	939.984022502053	399.578468635594	582.391108623596	860.350735215608	303.448414823128	645.561326564381	892.513542231209	204.743514348161	582.321848254154	745.513581221711	44.619834305472	555.350746436649	917.313568145231	96.519874140911	590.417490986558	828.367593307174	37.508633118131	629.360827453168	1036.960567541075	40.342283248298	620.143685460847	1106.079439455482	68.900158212035	347.239305583915	1188.168507238500	78.432684402041	275.842914784818	1256.084814080286	154.339152492586	309.609355445482	1391.986656056949	126.112495396247	295.254164475253	839.388418674220	1100.350201974625	230.746463453772	798.013871801606	844.493628766053	250.669360099197	1246.731362212080	1136.830901878620	718.127919467157	1415.211355635480	1271.157620982913	596.029127095902	
19	20.557000000000	811.493344170030	1019.198984028157	509.815853477682	1007.435653745252	1417.805006296134	297.000761328797	1127.840657885970	1337.836899625287	440.493396417916	1089.243102734247	1430.487355348981	618.758137514076	1044.458074747248	1481.705146782121	446.019745615354	1038.018679629905	933.597959981752	605.959317536616	1003.887357376680	954.253546172007	332.163979559848	1031.541115250328	722.430960369461	581.544910074443	929.602324857289	632.832972442312	647.960584814380	987.507170349975	565.353670926674	566.514883586608	969.614023404907	482.979162168213	572.941237560896	1092.005529040254	799.545674239082	377.898184454308	1073.032387349194	670.040240774734	289.742439455334	1176.752447143761	621.324470876993	358.411983608906	1210.053387241687	550.996946812657	352.881830456370	1190.308762404822	473.119662832059	337.917157931621	1121.942468312168	350.477016778309	272.985528712990	1196.363061998422	243.347377682632	330.656874034574	933.968497518636	398.907186564337	581.938987592450	853.619940300650	303.433809824389	645.260565616234	885.034236680372	204.389931165307	582.168392985940	737.344000864293	44.522857796293	555.359046672263	909.117063772932	96.456967730175	590.442445113611	820.185727261462	37.444212482090	629.461141593492	1028.774571136665	40.296569045010	620.140296899697	1102.257856504416	63.983683647772	349.168963294375	1183.802944715789	73.036982195403	277.155085042513	1252.019400614197	148.859953507085	310.127765374013	1387.735907641654	120.292152382109	294.954021381167	834.952039001202	1102.307358797212	228.917168887477	792.388070279521	846.524957444092	250.850422651490	1252.205029641203	1141.328529918884	713.637249628883	1411.681507644542	1283.995639146979	589.698888338373	
20	20.568500000000	812.412046333960	1017.310657057953	506.289352745700	1006.790620796444	1416.736558048115	294.637644727901	1127.050951404856	1337.462001402321	438.583293900218	1086.985720996290	1429.798094448787	616.462761104278	1042.766776860085	1480.632105683231	443.914383349249	1038.529619322226	932.530753798381	604.157608817696	1006.079741781679	951.793978667528	330.152397895463	1029.735763478865	720.822851973398	580.360412439541	926.356704064060	632.200004960056	646.741090054765	983.743061167544	563.857938033239	565.857659727983	964.842046327938	481.724424218609	572.235626624162	1092.822848094140	794.494052229879	376.078962560897	1070.638383379131	665.043696961106	288.571944191767	1173.856817030403	614.841673440330	356.737787899107	1205.287888437745	544.426147883001	351.698356934329	1185.469483627858	466.971719789133	336.794187829700	1116.475685817100	344.148460148683	273.202943666660	1191.123004436209	237.279075056084	331.057078228873	928.417989516115	398.037641201232	581.388537520412	847.251901591842	303.366723602558	644.905395545805	877.752236243976	203.936651879720	581.986671319583	729.187074096324	44.435225419251	555.378761038896	900.937337279732	96.386695554113	590.473445834975	812.018589767124	37.378052182500	629.575996871238	1020.601330187735	40.218756406360	620.162688745663	1096.662593551909	58.851529090500	351.175663796930	1177.706940377464	67.054288634642	278.535938141094	1246.520727632786	142.471159347631	310.759302525669	1381.966051536232	112.944148898448	294.820718948161	831.207430182597	1103.761809145753	226.895537257460	787.485336629804	848.070985102923	250.772599890399	1256.667534607640	1145.489622661566	709.380081646807	1407.571491320246	1295.298430482504	583.816158897780	
21	20.580000000000	813.482230123568	1015.223482769585	502.606910515587	1006.261609854936	1415.469563915824	292.020861914010	1126.291141571986	1337.038915002970	436.567117321263	1084.470711636771	1429.021390442422	614.064370728337	1041.008621843887	1479.448904301302	441.567536652282	1039.262991291875	931.304571789540	602.277877375528	1008.499541972513	949.171986016564	328.125150746137	1028.514654568773	719.128390339906	579.111697299993	923.698452680681	631.438179195546	645.374180264550	980.625922103618	562.261185762434	565.083999118263	960.694882987776	480.268234498140	571.366948025277	1093.648809821259	788.870231522886	373.903813983316	1067.746230633299	659.632391819407	287.245505041806	1170.523903983228	607.898356363569	354.947730178289	1200.000340484963	537.401983680377	350.475379649585	1180.035959867115	460.418373770096	335.624496259431	1110.237259370509	337.496771579537	273.372305364758	1184.954943255194	230.803010260097	331.474044082884	923.381222791206	396.961754438138	580.683975922743	841.296540951292	303.252744623259	644.463902118407	870.692976182153	203.392149538022	581.749245497124	721.043954133356	44.392623978360	555.417474883681	892.785403933414	96.316032561645	590.499052325015	803.872785152593	37.328298054872	629.701377970679	1012.448028946056	40.108605722076	620.211427969164	1089.692991168850	53.757959453279	353.095730385984	1170.332280271291	60.792998458376	279.883679707043	1239.983876009114	135.491013176886	311.487262400999	1375.096176692545	104.436288278282	294.945624398458	828.204742102858	1104.658932274445	224.669505213064	783.318384931990	849.100027876584	250.413670598003	1260.106565745589	1149.180252286116	705.396786869764	1402.978149118088	1305.057223643088	578.414756370984	
